<?xml version="1.0" encoding="UTF-8" standalone="no"?>
<svg width="40px" height="20px" viewBox="0 0 40 20" version="1.1" xmlns="http://www.w3.org/2000/svg" xmlns:xlink="http://www.w3.org/1999/xlink">
    <!-- Generator: Sketch 3.8.3 (29802) - http://www.bohemiancoding.com/sketch -->
    <title>appletv</title>
    <desc>Created with Sketch.</desc>
    <defs></defs>
    <g id="Page-1" stroke="none" stroke-width="1" fill="none" fill-rule="evenodd">
        <g id="appletv" fill="#FFFFFF">
            <g id="Group">
                <path d="M22.9,2.1 L21.5,2.6 L21.5,5.2 L19.2,5.2 L19.2,6.3 L21.5,6.3 L21.5,15.1 C21.5,15.8 21.6,16.3 21.7,16.9 C21.8,17.5 22,17.9 22.2,18.3 C22.4,18.7 22.8,19 23.2,19.2 C23.6,19.4 24.1,19.5 24.8,19.5 C25.6,19.5 26.3,19.4 26.7,19.2 L26.6,18.1 C26.2,18.2 25.7,18.3 25,18.3 C24.2,18.3 23.7,17.9 23.4,17.5 C23.1,17.1 22.9,16.3 22.9,15.4 L22.9,6.3 L26.8,6.3 L26.8,5.2 L22.9,5.2 L22.9,2.1 L22.9,2.1 Z" id="Shape"></path>
                <path d="M35.3,13.9 C34.7,15.3 34.3,16.5 33.9,17.6 L33.8,17.6 C33.4,16.4 33,15.3 32.4,13.9 L29.2,5.2 L27.7,5.2 L33.2,19.2 L34.4,19.2 L40,5.2 L38.5,5.2 L35.3,13.9 L35.3,13.9 Z" id="Shape"></path>
                <path d="M11,3.5 C11.7,2.7 12,1.8 12,0.8 L12,0.4 C11.5,0.4 11,0.6 10.5,0.8 C10,1.1 9.5,1.4 9.2,1.8 C8.4,2.7 8,3.6 8,4.5 L8,4.9 C9.1,5 10.1,4.4 11,3.5 L11,3.5 Z" id="Shape"></path>
                <path d="M13.4,10.5 C13.4,8.9 14.1,7.7 15.5,6.9 C14.7,5.8 13.5,5.1 11.9,5 C11.3,5 10.6,5.1 9.7,5.4 C8.8,5.6 8.3,5.8 8.1,5.8 C7.9,5.8 7.4,5.7 6.7,5.4 C6,5.1 5.3,5 4.9,5 C4.1,5 3.3,5.2 2.6,5.6 C1.9,6 1.3,6.6 0.9,7.4 C0.3,8.3 0.1,9.4 0.1,10.7 C0.1,11.8 0.3,13 0.7,14.1 C1,15.2 1.5,16.2 2.1,17 C2.7,17.8 3.1,18.3 3.5,18.6 C4.1,19.1 4.7,19.4 5.2,19.4 C5.6,19.4 6.1,19.3 6.7,19 C7.3,18.8 7.9,18.6 8.4,18.6 C8.9,18.6 9.5,18.7 10.1,19 C10.7,19.2 11.2,19.4 11.7,19.4 C12.3,19.4 12.9,19.1 13.4,18.7 C13.7,18.4 14.2,17.9 14.7,17.1 C15.1,16.5 15.4,15.9 15.7,15.3 C15.8,15 15.9,14.7 16,14.4 C15.5,14.2 15.1,13.9 14.7,13.5 C13.8,12.7 13.4,11.7 13.4,10.5 L13.4,10.5 Z" id="Shape"></path>
            </g>
        </g>
    </g>
</svg>