<?xml version="1.0" encoding="utf-8"?>
<!-- Generator: Adobe Illustrator 18.0.0, SVG Export Plug-In . SVG Version: 6.00 Build 0)  -->
<!DOCTYPE svg PUBLIC "-//W3C//DTD SVG 1.1//EN" "http://www.w3.org/Graphics/SVG/1.1/DTD/svg11.dtd">
<svg version="1.1" id="Layer_1" xmlns="http://www.w3.org/2000/svg" xmlns:xlink="http://www.w3.org/1999/xlink" x="0px" y="0px"
	 width="43px" height="20px" viewBox="0 0 43 20" enable-background="new 0 0 43 20" xml:space="preserve">
<g id="NOTES">
</g>
<g>
	<path fill="#231F20" d="M24.9,2.1l-1.4,0.5v2.6h-2.3v1.1h2.3v8.8c0,0.7,0.1,1.2,0.2,1.8c0.1,0.6,0.3,1,0.5,1.4s0.6,0.7,1,0.9
		c0.4,0.2,0.9,0.3,1.6,0.3c0.8,0,1.5-0.1,1.9-0.3l-0.1-1.1c-0.4,0.1-0.9,0.2-1.6,0.2c-0.8,0-1.3-0.4-1.6-0.8
		c-0.3-0.4-0.5-1.2-0.5-2.1V6.3h3.9V5.2h-3.9V2.1z"/>
	<path fill="#231F20" d="M37.3,13.9c-0.6,1.4-1,2.6-1.4,3.7h-0.1c-0.4-1.2-0.8-2.3-1.4-3.7l-3.2-8.7h-1.5l5.5,14h1.2l5.6-14h-1.5
		L37.3,13.9z"/>
	<path fill="#231F20" d="M13,3.5c0.7-0.8,1-1.7,1-2.7c0-0.1,0-0.3,0-0.4c-0.5,0-1,0.2-1.5,0.4c-0.5,0.3-1,0.6-1.3,1
		C10.4,2.7,10,3.6,10,4.5c0,0.1,0,0.2,0,0.4C11.1,5,12.1,4.4,13,3.5z"/>
	<path fill="#231F20" d="M15.4,10.5c0-1.6,0.7-2.8,2.1-3.6c-0.8-1.1-2-1.8-3.6-1.9c-0.6,0-1.3,0.1-2.2,0.4c-0.9,0.2-1.4,0.4-1.6,0.4
		S9.4,5.7,8.7,5.4C8,5.1,7.3,5,6.9,5C6.1,5,5.3,5.2,4.6,5.6s-1.3,1-1.7,1.8c-0.6,0.9-0.8,2-0.8,3.3c0,1.1,0.2,2.3,0.6,3.4
		C3,15.2,3.5,16.2,4.1,17s1,1.3,1.4,1.6c0.6,0.5,1.2,0.8,1.7,0.8c0.4,0,0.9-0.1,1.5-0.4c0.6-0.2,1.2-0.4,1.7-0.4s1.1,0.1,1.7,0.4
		c0.6,0.2,1.1,0.4,1.6,0.4c0.6,0,1.2-0.3,1.7-0.7c0.3-0.3,0.8-0.8,1.3-1.6c0.4-0.6,0.7-1.2,1-1.8c0.1-0.3,0.2-0.6,0.3-0.9
		c-0.5-0.2-0.9-0.5-1.3-0.9C15.8,12.7,15.4,11.7,15.4,10.5z"/>
</g>
</svg>
