<?xml version="1.0" encoding="UTF-8" standalone="no"?>
<svg width="300px" height="99px" viewBox="0 0 300 99" version="1.1" xmlns="http://www.w3.org/2000/svg" xmlns:xlink="http://www.w3.org/1999/xlink">
    <!-- Generator: Sketch 3.8.3 (29802) - http://www.bohemiancoding.com/sketch -->
    <title>xfinity</title>
    <desc>Created with Sketch.</desc>
    <defs></defs>
    <g id="Page-1" stroke="none" stroke-width="1" fill="none" fill-rule="evenodd">
        <path d="M34.0197693,49.4915144 L53.1989597,22.2659937 L39.1348671,22.2659937 L27.274052,39.6252963 L15.422943,22.2659937 L1.34429139,22.2659937 L20.5089227,49.4915144 L9.69999519e-07,78.6679548 L14.0737996,78.6679548 L27.274052,59.3480265 L54.6985472,98.5459821 L68.1996878,98.5459821 L34.0197693,49.4915144 L34.0197693,49.4915144 Z M300.000004,22.2659937 L286.760927,22.2659937 L267.081874,58.2027104 L253.619558,22.2659937 L240.899756,22.2659937 L259.807176,71.4417872 L245.180132,98.5459821 L258.132879,98.5459821 L300.000004,22.2659937 L300.000004,22.2659937 Z M65.234484,22.2659937 L59.4448144,22.2659937 L52.7379214,31.8555888 L65.234484,31.8555888 L65.234484,78.6679548 L77.5029539,78.6679548 L77.5029539,31.8555888 L90.0189286,31.8555888 L90.0189286,22.2659937 L77.5029539,22.2659937 L77.5029539,16.8063304 C77.5029539,12.6812515 79.225781,11.0021018 83.3896842,11.0021018 C85.78223,11.0021018 88.2621303,11.472846 90.0189286,11.9484434 L90.0189286,2.07251919 C87.505057,1.16985487 84.0157256,0.582637754 80.2303591,0.582637754 C70.8348852,0.582637754 65.234484,6.73143183 65.234484,16.9858927 L65.234484,22.2659937 L65.234484,22.2659937 Z M212.912309,31.8555888 L212.912309,63.3808977 C212.912309,73.6693298 218.503004,79.7647405 227.879065,79.7647405 C230.98986,79.7647405 234.081243,79.3910569 236.420405,78.6679548 L237.900581,68.8793852 C237.196891,69.0540945 234.629636,69.6704298 232.358416,69.6704298 C227.253024,69.6704298 225.15166,67.6224494 225.15166,62.5413228 L225.15166,31.8555888 L239.254577,31.8555888 L235.590537,22.2659937 L225.15166,22.2659937 L225.15166,1.89780997 L212.912309,8.12425259 L212.912309,22.2659937 L203.982726,22.2659937 L203.982726,31.8555888 L212.912309,31.8555888 L212.912309,31.8555888 Z M149.856838,21.1400898 C144.08658,21.1400898 138.58324,23.5617537 135.729656,27.3568263 L135.729656,22.2659937 L123.461186,22.2659937 L123.461186,78.6679548 L135.729656,78.6679548 L135.729656,45.7498252 C135.729656,36.6067091 139.680026,31.5547007 146.872222,31.5547007 C154.680754,31.5547007 158.014788,36.1262588 158.014788,46.8174927 L158.014788,78.6679548 L170.25414,78.6679548 L170.25414,46.3904257 C170.25414,29.8609919 163.222093,21.1400898 149.856838,21.1400898 L149.856838,21.1400898 Z M110.353141,75.4989236 L110.353141,22.2659937 L98.0846711,22.2659937 L98.0846711,78.6679548 L110.353141,78.6679548 L110.353141,75.4989236 L110.353141,75.4989236 Z M195.121086,75.4989236 L195.121086,22.2659937 L182.799233,22.2659937 L182.799233,78.6679548 L195.121086,78.6679548 L195.121086,75.4989236 Z M282.54364,75.3970099 L282.54364,75.3630387 C282.54364,71.7135571 285.513697,68.6464396 289.274799,68.6464396 C293.045606,68.6464396 295.976839,71.6747328 295.976839,75.3193614 L295.976839,75.3630387 C295.976839,79.0125202 293.006782,82.0796377 289.235974,82.0796377 C285.474873,82.0796377 282.54364,79.0513445 282.54364,75.3970099 Z M295.273149,75.3630387 L295.273149,75.3193614 C295.273149,71.9998861 292.691335,69.3113053 289.274799,69.3113053 C285.843704,69.3113053 283.252183,72.0387104 283.252183,75.3630387 L283.252183,75.3970099 C283.252183,78.7261912 285.824291,81.409919 289.235974,81.409919 C292.676775,81.409919 295.273149,78.6825139 295.273149,75.3630387 Z M286.552247,71.6553207 L289.687306,71.6553207 C290.614236,71.6553207 291.342191,71.9367967 291.827494,72.417247 C292.191472,72.7666655 292.395299,73.266528 292.395299,73.8780103 L292.395299,73.9168345 C292.395299,75.0475914 291.730434,75.7561344 290.759827,76.0327574 L292.65251,78.6825139 L291.055862,78.6825139 L289.352447,76.2608499 L287.886831,76.2608499 L287.886831,78.6825139 L286.552247,78.6825139 L286.552247,71.6553207 Z M289.633923,75.0815627 C290.507469,75.0815627 291.017038,74.6544957 291.017038,73.98963 L291.017038,73.9556588 C291.017038,73.2471158 290.507469,72.8637261 289.633923,72.8637261 L287.886831,72.8637261 L287.886831,75.0815627 L289.633923,75.0815627 Z" id="xfinity" fill="#FFFFFF"></path>
    </g>
</svg>