<?xml version="1.0" encoding="UTF-8" standalone="no"?>
<svg width="300px" height="99px" viewBox="0 0 300 99" version="1.1" xmlns="http://www.w3.org/2000/svg" xmlns:xlink="http://www.w3.org/1999/xlink">
    <!-- Generator: Sketch 3.8.3 (29802) - http://www.bohemiancoding.com/sketch -->
    <title>xfinity</title>
    <desc>Created with Sketch.</desc>
    <defs></defs>
    <g id="Page-1" stroke="none" stroke-width="1" fill="none" fill-rule="evenodd">
        <g id="xfinity" fill="#FFFFFF">
            <path d="M34.0197693,49.6371054 L53.1989597,76.8626262 L39.1348671,76.8626262 L27.274052,59.5033235 L15.422943,76.8626262 L1.34429139,76.8626262 L20.5089227,49.6371054 L9.69999519e-07,20.460665 L14.0737996,20.460665 L27.274052,39.7805934 L54.6985472,0.582637754 L68.1996878,0.582637754 L34.0197693,49.6371054 L34.0197693,49.6371054 Z M300.000004,76.8626262 L286.760927,76.8626262 L267.081874,40.9259094 L253.619558,76.8626262 L240.899756,76.8626262 L259.807176,27.6868326 L245.180132,0.582637754 L258.132879,0.582637754 L300.000004,76.8626262 L300.000004,76.8626262 Z M65.234484,76.8626262 L59.4448144,76.8626262 L52.7379214,67.273031 L65.234484,67.273031 L65.234484,20.460665 L77.5029539,20.460665 L77.5029539,67.273031 L90.0189286,67.273031 L90.0189286,76.8626262 L77.5029539,76.8626262 L77.5029539,82.3222894 C77.5029539,86.4473683 79.225781,88.1265181 83.3896842,88.1265181 C85.78223,88.1265181 88.2621303,87.6557738 90.0189286,87.1801764 L90.0189286,97.0561006 C87.505057,97.958765 84.0157256,98.5459821 80.2303591,98.5459821 C70.8348852,98.5459821 65.234484,92.397188 65.234484,82.1427272 L65.234484,76.8626262 L65.234484,76.8626262 Z M212.912309,67.273031 L212.912309,35.7477221 C212.912309,25.45929 218.503004,19.3638793 227.879065,19.3638793 C230.98986,19.3638793 234.081243,19.737563 236.420405,20.460665 L237.900581,30.2492346 C237.196891,30.0745254 234.629636,29.4581901 232.358416,29.4581901 C227.253024,29.4581901 225.15166,31.5061704 225.15166,36.587297 L225.15166,67.273031 L239.254577,67.273031 L235.590537,76.8626262 L225.15166,76.8626262 L225.15166,97.2308099 L212.912309,91.0043672 L212.912309,76.8626262 L203.982726,76.8626262 L203.982726,67.273031 L212.912309,67.273031 L212.912309,67.273031 Z M149.856838,77.9885301 C144.08658,77.9885301 138.58324,75.5668661 135.729656,71.7717935 L135.729656,76.8626262 L123.461186,76.8626262 L123.461186,20.460665 L135.729656,20.460665 L135.729656,53.3787946 C135.729656,62.5219107 139.680026,67.5739191 146.872222,67.5739191 C154.680754,67.5739191 158.014788,63.0023611 158.014788,52.3111272 L158.014788,20.460665 L170.25414,20.460665 L170.25414,52.7381942 C170.25414,69.267628 163.222093,77.9885301 149.856838,77.9885301 L149.856838,77.9885301 Z M110.353141,23.6296962 L110.353141,76.8626262 L98.0846711,76.8626262 L98.0846711,20.460665 L110.353141,20.460665 L110.353141,23.6296962 L110.353141,23.6296962 Z M195.121086,23.6296962 L195.121086,76.8626262 L182.799233,76.8626262 L182.799233,20.460665 L195.121086,20.460665 L195.121086,23.6296962 L195.121086,23.6296962 Z" id="path228" transform="translate(150.000002, 49.564310) scale(1, -1) translate(-150.000002, -49.564310) "></path>
            <path d="M289.633923,75.6445146 C290.507469,75.6445146 291.017038,76.0715816 291.017038,76.7364473 L291.017038,76.7704185 C291.017038,77.4789615 290.507469,77.8623512 289.633923,77.8623512 L287.886831,77.8623512 L287.886831,75.6445146 L289.633923,75.6445146 L289.633923,75.6445146 Z M286.552247,79.0707566 L289.687306,79.0707566 C290.614236,79.0707566 291.342191,78.7892807 291.827494,78.3088303 C292.191472,77.9594118 292.395299,77.4595493 292.395299,76.8480671 L292.395299,76.8092428 C292.395299,75.6784859 291.730434,74.9699429 290.759827,74.69332 L292.65251,72.0435634 L291.055862,72.0435634 L289.352447,74.4652274 L287.886831,74.4652274 L287.886831,72.0435634 L286.552247,72.0435634 L286.552247,79.0707566 L286.552247,79.0707566 Z M295.273149,75.3630387 L295.273149,75.406716 C295.273149,78.7261912 292.691335,81.4147721 289.274799,81.4147721 C285.843704,81.4147721 283.252183,78.6873669 283.252183,75.3630387 L283.252183,75.3290674 C283.252183,71.9998861 285.824291,69.3161583 289.235974,69.3161583 C292.676775,69.3161583 295.273149,72.0435634 295.273149,75.3630387 L295.273149,75.3630387 Z M282.54364,75.3290674 L282.54364,75.3630387 C282.54364,79.0125202 285.513697,82.0796377 289.274799,82.0796377 C293.045606,82.0796377 295.976839,79.0513445 295.976839,75.406716 L295.976839,75.3630387 C295.976839,71.7135571 293.006782,68.6464396 289.235974,68.6464396 C285.474873,68.6464396 282.54364,71.6747328 282.54364,75.3290674 L282.54364,75.3290674 Z" id="path254" transform="translate(289.260240, 75.363039) scale(1, -1) translate(-289.260240, -75.363039) "></path>
        </g>
    </g>
</svg>