<?xml version="1.0" standalone="no"?>
<!DOCTYPE svg PUBLIC "-//W3C//DTD SVG 20010904//EN"
 "http://www.w3.org/TR/2001/REC-SVG-20010904/DTD/svg10.dtd">
<svg version="1.0" xmlns="http://www.w3.org/2000/svg"
 width="260.000000pt" height="260.000000pt" viewBox="0 0 260.000000 260.000000"
 preserveAspectRatio="xMidYMid meet">
<metadata>
Created by potrace 1.11, written by Peter Selinger 2001-2013
</metadata>
<g transform="translate(0.000000,260.000000) scale(0.100000,-0.100000)"
fill="#000000" stroke="none">
<path d="M1790 2593 c-66 -18 -148 -48 -179 -66 -44 -25 -119 -84 -144 -112
-9 -11 -25 -29 -35 -40 -33 -37 -91 -139 -111 -196 -11 -31 -21 -87 -23 -125
l-3 -69 60 2 c74 3 130 23 216 78 171 110 262 263 263 444 1 87 -3 95 -44 84z"/>
<path d="M723 1950 c-183 -43 -312 -149 -416 -340 -37 -68 -73 -184 -82 -260
-8 -81 -6 -263 5 -340 21 -146 82 -352 145 -484 29 -62 125 -218 144 -236 4
-3 24 -27 45 -55 81 -103 210 -202 291 -222 56 -14 131 -7 195 18 138 52 201
70 275 75 91 7 139 -3 304 -61 159 -57 242 -51 357 23 96 62 214 214 311 400
44 84 83 182 83 208 0 6 -24 26 -53 42 -30 17 -85 61 -124 99 -117 114 -163
220 -167 389 -6 199 76 364 232 468 l52 35 -32 38 c-118 136 -278 212 -460
218 -79 3 -178 -14 -320 -54 -43 -12 -87 -24 -99 -26 -12 -3 -37 -10 -56 -16
-52 -17 -147 3 -248 51 -91 44 -267 58 -382 30z m1162 -154 c71 -9 71 -8 71
-96 0 -78 -1 -79 -23 -73 -13 3 -48 6 -79 6 -77 1 -96 -19 -100 -111 l-3 -69
72 -1 c40 0 86 0 104 -1 l31 -1 -2 -69 c-1 -38 -5 -73 -9 -77 -4 -4 -49 -8
-100 -8 l-92 -1 0 -378 c0 -352 -1 -377 -17 -378 -23 -2 -97 -2 -146 0 l-38 1
1 379 0 378 -98 -1 c-53 -1 -97 2 -97 7 0 4 21 39 48 76 46 68 48 70 95 73
l49 3 4 82 c7 158 67 238 194 261 25 5 56 7 70 6 14 -2 43 -5 65 -8z m-1045
-482 c48 -71 92 -129 98 -129 7 0 27 23 45 50 74 113 139 205 147 210 7 5 167
9 208 6 18 -1 9 -17 -142 -230 -73 -102 -135 -191 -139 -198 -7 -10 14 -55 33
-73 3 -3 31 -43 63 -90 75 -109 131 -190 300 -431 75 -108 137 -201 137 -206
0 -5 -46 -9 -104 -9 l-104 1 -48 68 c-27 38 -56 80 -64 93 -8 13 -86 125 -173
249 l-159 226 -103 -152 c-57 -83 -106 -153 -109 -156 -6 -7 -193 -9 -211 -3
-10 4 33 72 150 238 l164 233 -121 172 c-67 95 -131 185 -142 202 -12 16 -27
36 -35 45 -13 13 -4 16 85 20 54 3 107 2 118 -1 10 -3 58 -63 106 -135z"/>
</g>
</svg>
